<svg xmlns="http://www.w3.org/2000/svg" xmlns:xlink="http://www.w3.org/1999/xlink" width="500" zoomAndPan="magnify" viewBox="0 0 375 374.999991" height="500" preserveAspectRatio="xMidYMid meet" version="1.0"><defs><g/><clipPath id="dad7c53064"><path d="M 94 0 L 281 0 L 281 216.78125 L 94 216.78125 Z M 94 0 " clip-rule="nonzero"/></clipPath></defs><rect x="-37.5" width="450" fill="#ffffff" y="-37.499999" height="449.999989" fill-opacity="1"/><rect x="-37.5" width="450" fill="#ffffff" y="-37.499999" height="449.999989" fill-opacity="1"/><path fill="#002d24" d="M 268.949219 193.441406 C 268.949219 193.882812 268.820312 194.324219 268.554688 194.761719 C 268.292969 195.199219 267.898438 195.636719 267.371094 196.070312 C 266.847656 196.5 266.195312 196.929688 265.414062 197.351562 C 264.632812 197.773438 263.726562 198.1875 262.695312 198.597656 C 261.664062 199.003906 260.515625 199.402344 259.246094 199.789062 C 257.980469 200.179688 256.597656 200.558594 255.101562 200.925781 C 253.605469 201.292969 252.003906 201.644531 250.296875 201.984375 C 248.589844 202.328125 246.785156 202.652344 244.882812 202.964844 C 242.980469 203.277344 240.988281 203.574219 238.90625 203.851562 C 236.828125 204.132812 234.667969 204.394531 232.429688 204.640625 C 230.191406 204.886719 227.886719 205.113281 225.511719 205.320312 C 223.140625 205.527344 220.710938 205.714844 218.222656 205.886719 C 215.738281 206.054688 213.207031 206.203125 210.628906 206.332031 C 208.054688 206.457031 205.449219 206.566406 202.808594 206.652344 C 200.167969 206.738281 197.511719 206.800781 194.832031 206.84375 C 192.152344 206.886719 189.46875 206.910156 186.777344 206.910156 C 184.085938 206.910156 181.402344 206.886719 178.722656 206.84375 C 176.042969 206.800781 173.386719 206.738281 170.746094 206.652344 C 168.105469 206.566406 165.5 206.457031 162.921875 206.332031 C 160.347656 206.203125 157.816406 206.054688 155.332031 205.886719 C 152.84375 205.714844 150.414062 205.527344 148.039062 205.320312 C 145.667969 205.113281 143.363281 204.886719 141.125 204.640625 C 138.886719 204.394531 136.726562 204.132812 134.648438 203.851562 C 132.566406 203.574219 130.574219 203.277344 128.671875 202.964844 C 126.769531 202.652344 124.964844 202.328125 123.257812 201.984375 C 121.550781 201.644531 119.949219 201.292969 118.453125 200.925781 C 116.957031 200.558594 115.574219 200.179688 114.304688 199.789062 C 113.039062 199.402344 111.886719 199.003906 110.859375 198.597656 C 109.828125 198.1875 108.921875 197.773438 108.140625 197.351562 C 107.359375 196.929688 106.707031 196.5 106.183594 196.070312 C 105.65625 195.636719 105.261719 195.199219 105 194.761719 C 104.734375 194.324219 104.605469 193.882812 104.605469 193.441406 C 104.605469 193 104.734375 192.558594 105 192.121094 C 105.261719 191.683594 105.65625 191.246094 106.183594 190.8125 C 106.707031 190.382812 107.359375 189.953125 108.140625 189.53125 C 108.921875 189.109375 109.828125 188.695312 110.859375 188.289062 C 111.886719 187.878906 113.039062 187.480469 114.304688 187.09375 C 115.574219 186.703125 116.957031 186.324219 118.453125 185.960938 C 119.949219 185.59375 121.550781 185.238281 123.257812 184.898438 C 124.964844 184.554688 126.769531 184.230469 128.671875 183.917969 C 130.574219 183.605469 132.566406 183.308594 134.648438 183.03125 C 136.726562 182.75 138.886719 182.488281 141.125 182.242188 C 143.363281 181.996094 145.667969 181.773438 148.039062 181.5625 C 150.414062 181.355469 152.84375 181.167969 155.332031 181 C 157.816406 180.828125 160.347656 180.679688 162.921875 180.554688 C 165.5 180.425781 168.105469 180.316406 170.746094 180.230469 C 173.386719 180.144531 176.042969 180.082031 178.722656 180.039062 C 181.402344 179.996094 184.085938 179.972656 186.777344 179.972656 C 189.46875 179.972656 192.152344 179.996094 194.832031 180.039062 C 197.511719 180.082031 200.167969 180.144531 202.808594 180.230469 C 205.449219 180.316406 208.054688 180.425781 210.628906 180.554688 C 213.207031 180.679688 215.738281 180.828125 218.222656 181 C 220.710938 181.167969 223.140625 181.355469 225.511719 181.5625 C 227.886719 181.773438 230.191406 181.996094 232.429688 182.242188 C 234.667969 182.488281 236.828125 182.75 238.90625 183.03125 C 240.988281 183.308594 242.980469 183.605469 244.882812 183.917969 C 246.785156 184.230469 248.589844 184.554688 250.296875 184.898438 C 252.003906 185.238281 253.605469 185.59375 255.101562 185.960938 C 256.597656 186.324219 257.980469 186.703125 259.246094 187.09375 C 260.515625 187.480469 261.664062 187.878906 262.695312 188.289062 C 263.726562 188.695312 264.632812 189.109375 265.414062 189.53125 C 266.195312 189.953125 266.847656 190.382812 267.371094 190.8125 C 267.898438 191.246094 268.292969 191.683594 268.554688 192.121094 C 268.820312 192.558594 268.949219 193 268.949219 193.441406 Z M 268.949219 193.441406 " fill-opacity="1" fill-rule="nonzero"/><path fill="#002d24" d="M 196.667969 183.644531 L 172.535156 183.703125 C 162.441406 119.4375 178.296875 61.464844 220.148438 9.871094 C 188.714844 69.835938 180.878906 127.75 196.667969 183.644531 Z M 196.667969 183.644531 " fill-opacity="1" fill-rule="evenodd"/><path fill="#002d24" d="M 238.652344 103.59375 C 221.828125 107.230469 207.25 115.914062 194.917969 129.640625 C 200.789062 94.203125 226.089844 79.730469 270.8125 86.226562 C 265.996094 130.746094 242.519531 150.683594 200.382812 146.042969 C 206.53125 127.886719 219.289062 113.738281 238.652344 103.59375 Z M 238.652344 103.59375 " fill-opacity="1" fill-rule="evenodd"/><path fill="#002d24" d="M 150.214844 47.636719 C 160.714844 56.191406 166.183594 68.519531 166.617188 84.621094 C 141.550781 81.988281 128.472656 63.765625 127.382812 29.949219 C 161.316406 31.988281 177.394531 46.570312 175.621094 73.6875 C 169.085938 62.226562 160.617188 53.542969 150.214844 47.636719 Z M 150.214844 47.636719 " fill-opacity="1" fill-rule="evenodd"/><g clip-path="url(#dad7c53064)"><path fill="#002d24" d="M 99.054688 0.226562 L 276.363281 0.226562 C 277.550781 0.226562 278.632812 0.714844 279.417969 1.5 C 279.421875 1.5 279.421875 1.5 279.421875 1.503906 C 279.425781 1.503906 279.425781 1.503906 279.425781 1.507812 C 279.429688 1.507812 279.429688 1.507812 279.429688 1.511719 C 280.214844 2.296875 280.699219 3.378906 280.699219 4.5625 L 280.699219 212.21875 C 280.699219 213.40625 280.210938 214.488281 279.425781 215.277344 C 279.425781 215.277344 279.425781 215.277344 279.421875 215.28125 C 279.421875 215.28125 279.421875 215.28125 279.417969 215.28125 C 279.417969 215.285156 279.417969 215.285156 279.417969 215.285156 C 278.628906 216.070312 277.546875 216.554688 276.363281 216.554688 L 99.054688 216.554688 C 97.867188 216.554688 96.785156 216.066406 95.996094 215.28125 C 95.996094 215.28125 95.996094 215.28125 95.992188 215.28125 C 95.992188 215.277344 95.992188 215.277344 95.988281 215.277344 C 95.988281 215.273438 95.988281 215.273438 95.984375 215.273438 C 95.203125 214.484375 94.71875 213.402344 94.71875 212.21875 L 94.71875 4.5625 C 94.71875 3.375 95.203125 2.292969 95.988281 1.507812 C 95.992188 1.503906 95.992188 1.503906 95.992188 1.503906 C 95.996094 1.503906 95.996094 1.5 95.996094 1.5 C 95.996094 1.5 96 1.496094 96 1.496094 C 96.789062 0.710938 97.871094 0.226562 99.054688 0.226562 Z M 99.054688 1.960938 L 276.363281 1.960938 C 277.792969 1.960938 278.964844 3.132812 278.964844 4.5625 L 278.964844 212.21875 C 278.964844 213.652344 277.792969 214.820312 276.363281 214.820312 L 99.054688 214.820312 C 97.621094 214.820312 96.453125 213.652344 96.453125 212.21875 L 96.453125 4.5625 C 96.453125 3.132812 97.621094 1.960938 99.054688 1.960938 Z M 99.054688 1.960938 " fill-opacity="1" fill-rule="evenodd"/></g><g fill="#002d24" fill-opacity="1"><g transform="translate(24.456421, 341.186505)"><g><path d="M 74.515625 0 L 67.734375 -19.234375 L 28.53125 -19.234375 L 21.765625 0 L 1.9375 0 L 36.28125 -93.296875 L 59.984375 -93.296875 L 94.328125 0 Z M 34.21875 -35.453125 L 62.046875 -35.453125 L 48.171875 -75.03125 Z M 34.21875 -35.453125 "/></g></g></g><g fill="#002d24" fill-opacity="1"><g transform="translate(112.524213, 341.186505)"><g><path d="M 12.078125 0 L 12.078125 -93.296875 L 31.4375 -93.296875 L 31.4375 0 Z M 12.078125 0 "/></g></g></g><g fill="#002d24" fill-opacity="1"><g transform="translate(147.77761, 341.186505)"><g><path d="M 119 0 L 99.6875 0 L 93.5625 -70.3125 L 69.921875 0 L 57.40625 0 L 33.765625 -70.3125 L 27.578125 0 L 8.203125 0 L 16.015625 -93.296875 L 43.640625 -93.296875 L 63.53125 -34.734375 L 83.671875 -93.296875 L 111.3125 -93.296875 Z M 119 0 "/></g></g></g><g fill="#002d24" fill-opacity="1"><g transform="translate(266.772177, 341.186505)"><g><path d="M 43.125 1.296875 C 38.09375 1.296875 33.398438 0.703125 29.046875 -0.484375 C 24.703125 -1.671875 20.816406 -3.414062 17.390625 -5.71875 C 13.972656 -8.019531 11.164062 -10.847656 8.96875 -14.203125 C 6.78125 -17.554688 5.316406 -21.429688 4.578125 -25.828125 L 23.765625 -30.21875 C 25.140625 -24.882812 27.546875 -20.9375 30.984375 -18.375 C 34.429688 -15.8125 38.585938 -14.53125 43.453125 -14.53125 C 46.210938 -14.53125 48.6875 -14.925781 50.875 -15.71875 C 53.070312 -16.519531 54.804688 -17.738281 56.078125 -19.375 C 57.347656 -21.007812 57.960938 -23.070312 57.921875 -25.5625 C 57.921875 -27.84375 57.316406 -29.769531 56.109375 -31.34375 C 54.898438 -32.914062 53.285156 -34.257812 51.265625 -35.375 C 49.242188 -36.5 46.929688 -37.488281 44.328125 -38.34375 C 41.722656 -39.207031 39 -40.070312 36.15625 -40.9375 C 33.40625 -41.800781 30.671875 -42.710938 27.953125 -43.671875 C 25.242188 -44.640625 22.679688 -45.789062 20.265625 -47.125 C 17.859375 -48.46875 15.71875 -50.0625 13.84375 -51.90625 C 11.976562 -53.757812 10.503906 -55.96875 9.421875 -58.53125 C 8.347656 -61.09375 7.8125 -64.117188 7.8125 -67.609375 C 7.8125 -71.910156 8.640625 -75.726562 10.296875 -79.0625 C 11.953125 -82.394531 14.265625 -85.210938 17.234375 -87.515625 C 20.203125 -89.816406 23.6875 -91.570312 27.6875 -92.78125 C 31.695312 -93.988281 36.046875 -94.59375 40.734375 -94.59375 C 44.828125 -94.59375 48.851562 -94.148438 52.8125 -93.265625 C 56.769531 -92.378906 60.4375 -90.96875 63.8125 -89.03125 C 67.195312 -87.101562 70.070312 -84.578125 72.4375 -81.453125 C 74.8125 -78.328125 76.472656 -74.53125 77.421875 -70.0625 L 59.859375 -65.734375 C 58.390625 -70.203125 56.125 -73.488281 53.0625 -75.59375 C 50.007812 -77.707031 46.289062 -78.765625 41.90625 -78.765625 C 39.320312 -78.765625 36.929688 -78.390625 34.734375 -77.640625 C 32.535156 -76.890625 30.769531 -75.75 29.4375 -74.21875 C 28.101562 -72.6875 27.4375 -70.71875 27.4375 -68.3125 C 27.4375 -66.375 27.960938 -64.738281 29.015625 -63.40625 C 30.078125 -62.070312 31.519531 -60.929688 33.34375 -59.984375 C 35.175781 -59.035156 37.285156 -58.179688 39.671875 -57.421875 C 42.066406 -56.671875 44.578125 -55.910156 47.203125 -55.140625 C 50.035156 -54.273438 52.90625 -53.335938 55.8125 -52.328125 C 58.71875 -51.316406 61.484375 -50.113281 64.109375 -48.71875 C 66.734375 -47.320312 69.085938 -45.617188 71.171875 -43.609375 C 73.265625 -41.609375 74.914062 -39.21875 76.125 -36.4375 C 77.332031 -33.664062 77.9375 -30.390625 77.9375 -26.609375 C 77.9375 -22.171875 77.082031 -18.21875 75.375 -14.75 C 73.675781 -11.289062 71.265625 -8.363281 68.140625 -5.96875 C 65.023438 -3.582031 61.347656 -1.773438 57.109375 -0.546875 C 52.867188 0.679688 48.207031 1.296875 43.125 1.296875 Z M 43.125 1.296875 "/></g></g></g><g fill="#002d24" fill-opacity="1"><g transform="translate(25.317836, 369.98939)"><g><path d="M 3.28125 -5.40625 L 3.953125 -5.40625 C 4.609375 -5.40625 5.085938 -5.515625 5.390625 -5.734375 C 5.703125 -5.953125 5.859375 -6.296875 5.859375 -6.765625 C 5.859375 -7.222656 5.695312 -7.546875 5.375 -7.734375 C 5.0625 -7.929688 4.570312 -8.03125 3.90625 -8.03125 L 3.28125 -8.03125 Z M 3.28125 -3.734375 L 3.28125 0 L 1.21875 0 L 1.21875 -9.71875 L 4.0625 -9.71875 C 5.382812 -9.71875 6.359375 -9.476562 6.984375 -9 C 7.617188 -8.519531 7.9375 -7.789062 7.9375 -6.8125 C 7.9375 -6.238281 7.78125 -5.726562 7.46875 -5.28125 C 7.15625 -4.832031 6.710938 -4.484375 6.140625 -4.234375 C 7.597656 -2.046875 8.550781 -0.632812 9 0 L 6.703125 0 L 4.390625 -3.734375 Z M 3.28125 -3.734375 "/></g></g></g><g fill="#002d24" fill-opacity="1"><g transform="translate(34.996696, 369.98939)"><g><path d="M 1.21875 0 L 1.21875 -9.71875 L 3.28125 -9.71875 L 3.28125 0 Z M 1.21875 0 "/></g></g></g><g fill="#002d24" fill-opacity="1"><g transform="translate(40.190298, 369.98939)"><g><path d="M 6.828125 0 L 1.21875 0 L 1.21875 -9.71875 L 6.828125 -9.71875 L 6.828125 -8.03125 L 3.28125 -8.03125 L 3.28125 -5.90625 L 6.578125 -5.90625 L 6.578125 -4.21875 L 3.28125 -4.21875 L 3.28125 -1.703125 L 6.828125 -1.703125 Z M 6.828125 0 "/></g></g></g><g fill="#002d24" fill-opacity="1"><g transform="translate(48.504955, 369.98939)"><g><path d="M 4.921875 -5.46875 L 8.78125 -5.46875 L 8.78125 -0.421875 C 8.15625 -0.210938 7.566406 -0.0664062 7.015625 0.015625 C 6.460938 0.0976562 5.894531 0.140625 5.3125 0.140625 C 3.84375 0.140625 2.722656 -0.289062 1.953125 -1.15625 C 1.179688 -2.019531 0.796875 -3.257812 0.796875 -4.875 C 0.796875 -6.445312 1.242188 -7.671875 2.140625 -8.546875 C 3.035156 -9.421875 4.28125 -9.859375 5.875 -9.859375 C 6.875 -9.859375 7.835938 -9.660156 8.765625 -9.265625 L 8.078125 -7.625 C 7.367188 -7.976562 6.628906 -8.15625 5.859375 -8.15625 C 4.972656 -8.15625 4.257812 -7.851562 3.71875 -7.25 C 3.175781 -6.65625 2.90625 -5.851562 2.90625 -4.84375 C 2.90625 -3.78125 3.125 -2.96875 3.5625 -2.40625 C 4 -1.851562 4.628906 -1.578125 5.453125 -1.578125 C 5.878906 -1.578125 6.316406 -1.625 6.765625 -1.71875 L 6.765625 -3.75 L 4.921875 -3.75 Z M 4.921875 -5.46875 "/></g></g></g><g fill="#002d24" fill-opacity="1"><g transform="translate(59.055587, 369.98939)"><g><path d="M 7.171875 0 L 6.46875 -2.3125 L 2.921875 -2.3125 L 2.21875 0 L 0 0 L 3.4375 -9.765625 L 5.953125 -9.765625 L 9.40625 0 Z M 5.984375 -4.046875 C 5.328125 -6.140625 4.957031 -7.320312 4.875 -7.59375 C 4.789062 -7.875 4.734375 -8.09375 4.703125 -8.25 C 4.554688 -7.6875 4.140625 -6.285156 3.453125 -4.046875 Z M 5.984375 -4.046875 "/></g></g></g><g fill="#002d24" fill-opacity="1"><g transform="translate(69.140393, 369.98939)"><g/></g></g><g fill="#002d24" fill-opacity="1"><g transform="translate(73.362412, 369.98939)"><g><path d="M 5.359375 -8.15625 C 4.578125 -8.15625 3.972656 -7.863281 3.546875 -7.28125 C 3.117188 -6.695312 2.90625 -5.882812 2.90625 -4.84375 C 2.90625 -2.664062 3.722656 -1.578125 5.359375 -1.578125 C 6.035156 -1.578125 6.863281 -1.75 7.84375 -2.09375 L 7.84375 -0.359375 C 7.039062 -0.0234375 6.144531 0.140625 5.15625 0.140625 C 3.75 0.140625 2.671875 -0.285156 1.921875 -1.140625 C 1.171875 -2.003906 0.796875 -3.238281 0.796875 -4.84375 C 0.796875 -5.851562 0.976562 -6.738281 1.34375 -7.5 C 1.707031 -8.269531 2.234375 -8.851562 2.921875 -9.25 C 3.617188 -9.65625 4.429688 -9.859375 5.359375 -9.859375 C 6.296875 -9.859375 7.242188 -9.632812 8.203125 -9.1875 L 7.53125 -7.5 C 7.164062 -7.675781 6.800781 -7.828125 6.4375 -7.953125 C 6.070312 -8.085938 5.710938 -8.15625 5.359375 -8.15625 Z M 5.359375 -8.15625 "/></g></g></g><g fill="#002d24" fill-opacity="1"><g transform="translate(82.728512, 369.98939)"><g><path d="M 10.046875 -4.875 C 10.046875 -3.269531 9.644531 -2.03125 8.84375 -1.15625 C 8.050781 -0.289062 6.910156 0.140625 5.421875 0.140625 C 3.929688 0.140625 2.785156 -0.289062 1.984375 -1.15625 C 1.191406 -2.03125 0.796875 -3.273438 0.796875 -4.890625 C 0.796875 -6.503906 1.191406 -7.738281 1.984375 -8.59375 C 2.785156 -9.445312 3.9375 -9.875 5.4375 -9.875 C 6.925781 -9.875 8.066406 -9.441406 8.859375 -8.578125 C 9.648438 -7.722656 10.046875 -6.488281 10.046875 -4.875 Z M 2.953125 -4.875 C 2.953125 -3.789062 3.15625 -2.972656 3.5625 -2.421875 C 3.976562 -1.867188 4.597656 -1.59375 5.421875 -1.59375 C 7.066406 -1.59375 7.890625 -2.6875 7.890625 -4.875 C 7.890625 -7.0625 7.070312 -8.15625 5.4375 -8.15625 C 4.613281 -8.15625 3.992188 -7.878906 3.578125 -7.328125 C 3.160156 -6.773438 2.953125 -5.957031 2.953125 -4.875 Z M 2.953125 -4.875 "/></g></g></g><g fill="#002d24" fill-opacity="1"><g transform="translate(94.257377, 369.98939)"><g><path d="M 9.859375 0 L 7.234375 0 L 3 -7.359375 L 2.9375 -7.359375 C 3.019531 -6.054688 3.0625 -5.128906 3.0625 -4.578125 L 3.0625 0 L 1.21875 0 L 1.21875 -9.71875 L 3.828125 -9.71875 L 8.046875 -2.4375 L 8.09375 -2.4375 C 8.03125 -3.707031 8 -4.601562 8 -5.125 L 8 -9.71875 L 9.859375 -9.71875 Z M 9.859375 0 "/></g></g></g><g fill="#002d24" fill-opacity="1"><g transform="translate(106.019163, 369.98939)"><g/></g></g><g fill="#002d24" fill-opacity="1"><g transform="translate(110.241183, 369.98939)"><g><path d="M 1.21875 0 L 1.21875 -9.71875 L 3.28125 -9.71875 L 3.28125 0 Z M 1.21875 0 "/></g></g></g><g fill="#002d24" fill-opacity="1"><g transform="translate(115.434787, 369.98939)"><g><path d="M 9.859375 0 L 7.234375 0 L 3 -7.359375 L 2.9375 -7.359375 C 3.019531 -6.054688 3.0625 -5.128906 3.0625 -4.578125 L 3.0625 0 L 1.21875 0 L 1.21875 -9.71875 L 3.828125 -9.71875 L 8.046875 -2.4375 L 8.09375 -2.4375 C 8.03125 -3.707031 8 -4.601562 8 -5.125 L 8 -9.71875 L 9.859375 -9.71875 Z M 9.859375 0 "/></g></g></g><g fill="#002d24" fill-opacity="1"><g transform="translate(127.196573, 369.98939)"><g><path d="M 4.96875 0 L 2.90625 0 L 2.90625 -8.015625 L 0.265625 -8.015625 L 0.265625 -9.71875 L 7.625 -9.71875 L 7.625 -8.015625 L 4.96875 -8.015625 Z M 4.96875 0 "/></g></g></g><g fill="#002d24" fill-opacity="1"><g transform="translate(135.770758, 369.98939)"><g><path d="M 6.828125 0 L 1.21875 0 L 1.21875 -9.71875 L 6.828125 -9.71875 L 6.828125 -8.03125 L 3.28125 -8.03125 L 3.28125 -5.90625 L 6.578125 -5.90625 L 6.578125 -4.21875 L 3.28125 -4.21875 L 3.28125 -1.703125 L 6.828125 -1.703125 Z M 6.828125 0 "/></g></g></g><g fill="#002d24" fill-opacity="1"><g transform="translate(144.085417, 369.98939)"><g><path d="M 1.21875 0 L 1.21875 -9.71875 L 3.28125 -9.71875 L 3.28125 -1.703125 L 7.234375 -1.703125 L 7.234375 0 Z M 1.21875 0 "/></g></g></g><g fill="#002d24" fill-opacity="1"><g transform="translate(152.466623, 369.98939)"><g><path d="M 1.21875 0 L 1.21875 -9.71875 L 3.28125 -9.71875 L 3.28125 0 Z M 1.21875 0 "/></g></g></g><g fill="#002d24" fill-opacity="1"><g transform="translate(157.660219, 369.98939)"><g><path d="M 4.921875 -5.46875 L 8.78125 -5.46875 L 8.78125 -0.421875 C 8.15625 -0.210938 7.566406 -0.0664062 7.015625 0.015625 C 6.460938 0.0976562 5.894531 0.140625 5.3125 0.140625 C 3.84375 0.140625 2.722656 -0.289062 1.953125 -1.15625 C 1.179688 -2.019531 0.796875 -3.257812 0.796875 -4.875 C 0.796875 -6.445312 1.242188 -7.671875 2.140625 -8.546875 C 3.035156 -9.421875 4.28125 -9.859375 5.875 -9.859375 C 6.875 -9.859375 7.835938 -9.660156 8.765625 -9.265625 L 8.078125 -7.625 C 7.367188 -7.976562 6.628906 -8.15625 5.859375 -8.15625 C 4.972656 -8.15625 4.257812 -7.851562 3.71875 -7.25 C 3.175781 -6.65625 2.90625 -5.851562 2.90625 -4.84375 C 2.90625 -3.78125 3.125 -2.96875 3.5625 -2.40625 C 4 -1.851562 4.628906 -1.578125 5.453125 -1.578125 C 5.878906 -1.578125 6.316406 -1.625 6.765625 -1.71875 L 6.765625 -3.75 L 4.921875 -3.75 Z M 4.921875 -5.46875 "/></g></g></g><g fill="#002d24" fill-opacity="1"><g transform="translate(168.210853, 369.98939)"><g><path d="M 6.828125 0 L 1.21875 0 L 1.21875 -9.71875 L 6.828125 -9.71875 L 6.828125 -8.03125 L 3.28125 -8.03125 L 3.28125 -5.90625 L 6.578125 -5.90625 L 6.578125 -4.21875 L 3.28125 -4.21875 L 3.28125 -1.703125 L 6.828125 -1.703125 Z M 6.828125 0 "/></g></g></g><g fill="#002d24" fill-opacity="1"><g transform="translate(176.525512, 369.98939)"><g><path d="M 9.859375 0 L 7.234375 0 L 3 -7.359375 L 2.9375 -7.359375 C 3.019531 -6.054688 3.0625 -5.128906 3.0625 -4.578125 L 3.0625 0 L 1.21875 0 L 1.21875 -9.71875 L 3.828125 -9.71875 L 8.046875 -2.4375 L 8.09375 -2.4375 C 8.03125 -3.707031 8 -4.601562 8 -5.125 L 8 -9.71875 L 9.859375 -9.71875 Z M 9.859375 0 "/></g></g></g><g fill="#002d24" fill-opacity="1"><g transform="translate(188.287299, 369.98939)"><g><path d="M 5.359375 -8.15625 C 4.578125 -8.15625 3.972656 -7.863281 3.546875 -7.28125 C 3.117188 -6.695312 2.90625 -5.882812 2.90625 -4.84375 C 2.90625 -2.664062 3.722656 -1.578125 5.359375 -1.578125 C 6.035156 -1.578125 6.863281 -1.75 7.84375 -2.09375 L 7.84375 -0.359375 C 7.039062 -0.0234375 6.144531 0.140625 5.15625 0.140625 C 3.75 0.140625 2.671875 -0.285156 1.921875 -1.140625 C 1.171875 -2.003906 0.796875 -3.238281 0.796875 -4.84375 C 0.796875 -5.851562 0.976562 -6.738281 1.34375 -7.5 C 1.707031 -8.269531 2.234375 -8.851562 2.921875 -9.25 C 3.617188 -9.65625 4.429688 -9.859375 5.359375 -9.859375 C 6.296875 -9.859375 7.242188 -9.632812 8.203125 -9.1875 L 7.53125 -7.5 C 7.164062 -7.675781 6.800781 -7.828125 6.4375 -7.953125 C 6.070312 -8.085938 5.710938 -8.15625 5.359375 -8.15625 Z M 5.359375 -8.15625 "/></g></g></g><g fill="#002d24" fill-opacity="1"><g transform="translate(197.653398, 369.98939)"><g><path d="M 1.21875 0 L 1.21875 -9.71875 L 3.28125 -9.71875 L 3.28125 0 Z M 1.21875 0 "/></g></g></g><g fill="#002d24" fill-opacity="1"><g transform="translate(202.847002, 369.98939)"><g><path d="M 7.171875 0 L 6.46875 -2.3125 L 2.921875 -2.3125 L 2.21875 0 L 0 0 L 3.4375 -9.765625 L 5.953125 -9.765625 L 9.40625 0 Z M 5.984375 -4.046875 C 5.328125 -6.140625 4.957031 -7.320312 4.875 -7.59375 C 4.789062 -7.875 4.734375 -8.09375 4.703125 -8.25 C 4.554688 -7.6875 4.140625 -6.285156 3.453125 -4.046875 Z M 5.984375 -4.046875 "/></g></g></g><g fill="#002d24" fill-opacity="1"><g transform="translate(212.931808, 369.98939)"><g><path d="M 3.046875 -1.4375 C 2.816406 -0.539062 2.425781 0.519531 1.875 1.75 L 0.421875 1.75 C 0.710938 0.570312 0.9375 -0.535156 1.09375 -1.578125 L 2.953125 -1.578125 Z M 3.046875 -1.4375 "/></g></g></g><g fill="#002d24" fill-opacity="1"><g transform="translate(217.566418, 369.98939)"><g/></g></g><g fill="#002d24" fill-opacity="1"><g transform="translate(221.788438, 369.98939)"><g><path d="M 7.171875 0 L 6.46875 -2.3125 L 2.921875 -2.3125 L 2.21875 0 L 0 0 L 3.4375 -9.765625 L 5.953125 -9.765625 L 9.40625 0 Z M 5.984375 -4.046875 C 5.328125 -6.140625 4.957031 -7.320312 4.875 -7.59375 C 4.789062 -7.875 4.734375 -8.09375 4.703125 -8.25 C 4.554688 -7.6875 4.140625 -6.285156 3.453125 -4.046875 Z M 5.984375 -4.046875 "/></g></g></g><g fill="#002d24" fill-opacity="1"><g transform="translate(231.873244, 369.98939)"><g><path d="M 9.1875 0 L 7.140625 0 L 7.140625 -4.203125 L 3.28125 -4.203125 L 3.28125 0 L 1.21875 0 L 1.21875 -9.71875 L 3.28125 -9.71875 L 3.28125 -5.921875 L 7.140625 -5.921875 L 7.140625 -9.71875 L 9.1875 -9.71875 Z M 9.1875 0 "/></g></g></g><g fill="#002d24" fill-opacity="1"><g transform="translate(242.982871, 369.98939)"><g><path d="M 10.046875 -4.875 C 10.046875 -3.269531 9.644531 -2.03125 8.84375 -1.15625 C 8.050781 -0.289062 6.910156 0.140625 5.421875 0.140625 C 3.929688 0.140625 2.785156 -0.289062 1.984375 -1.15625 C 1.191406 -2.03125 0.796875 -3.273438 0.796875 -4.890625 C 0.796875 -6.503906 1.191406 -7.738281 1.984375 -8.59375 C 2.785156 -9.445312 3.9375 -9.875 5.4375 -9.875 C 6.925781 -9.875 8.066406 -9.441406 8.859375 -8.578125 C 9.648438 -7.722656 10.046875 -6.488281 10.046875 -4.875 Z M 2.953125 -4.875 C 2.953125 -3.789062 3.15625 -2.972656 3.5625 -2.421875 C 3.976562 -1.867188 4.597656 -1.59375 5.421875 -1.59375 C 7.066406 -1.59375 7.890625 -2.6875 7.890625 -4.875 C 7.890625 -7.0625 7.070312 -8.15625 5.4375 -8.15625 C 4.613281 -8.15625 3.992188 -7.878906 3.578125 -7.328125 C 3.160156 -6.773438 2.953125 -5.957031 2.953125 -4.875 Z M 2.953125 -4.875 "/></g></g></g><g fill="#002d24" fill-opacity="1"><g transform="translate(254.511736, 369.98939)"><g><path d="M 3.28125 -5.40625 L 3.953125 -5.40625 C 4.609375 -5.40625 5.085938 -5.515625 5.390625 -5.734375 C 5.703125 -5.953125 5.859375 -6.296875 5.859375 -6.765625 C 5.859375 -7.222656 5.695312 -7.546875 5.375 -7.734375 C 5.0625 -7.929688 4.570312 -8.03125 3.90625 -8.03125 L 3.28125 -8.03125 Z M 3.28125 -3.734375 L 3.28125 0 L 1.21875 0 L 1.21875 -9.71875 L 4.0625 -9.71875 C 5.382812 -9.71875 6.359375 -9.476562 6.984375 -9 C 7.617188 -8.519531 7.9375 -7.789062 7.9375 -6.8125 C 7.9375 -6.238281 7.78125 -5.726562 7.46875 -5.28125 C 7.15625 -4.832031 6.710938 -4.484375 6.140625 -4.234375 C 7.597656 -2.046875 8.550781 -0.632812 9 0 L 6.703125 0 L 4.390625 -3.734375 Z M 3.28125 -3.734375 "/></g></g></g><g fill="#002d24" fill-opacity="1"><g transform="translate(264.190598, 369.98939)"><g><path d="M 3.28125 -5.40625 L 3.953125 -5.40625 C 4.609375 -5.40625 5.085938 -5.515625 5.390625 -5.734375 C 5.703125 -5.953125 5.859375 -6.296875 5.859375 -6.765625 C 5.859375 -7.222656 5.695312 -7.546875 5.375 -7.734375 C 5.0625 -7.929688 4.570312 -8.03125 3.90625 -8.03125 L 3.28125 -8.03125 Z M 3.28125 -3.734375 L 3.28125 0 L 1.21875 0 L 1.21875 -9.71875 L 4.0625 -9.71875 C 5.382812 -9.71875 6.359375 -9.476562 6.984375 -9 C 7.617188 -8.519531 7.9375 -7.789062 7.9375 -6.8125 C 7.9375 -6.238281 7.78125 -5.726562 7.46875 -5.28125 C 7.15625 -4.832031 6.710938 -4.484375 6.140625 -4.234375 C 7.597656 -2.046875 8.550781 -0.632812 9 0 L 6.703125 0 L 4.390625 -3.734375 Z M 3.28125 -3.734375 "/></g></g></g><g fill="#002d24" fill-opacity="1"><g transform="translate(273.86946, 369.98939)"><g><path d="M 7.171875 0 L 6.46875 -2.3125 L 2.921875 -2.3125 L 2.21875 0 L 0 0 L 3.4375 -9.765625 L 5.953125 -9.765625 L 9.40625 0 Z M 5.984375 -4.046875 C 5.328125 -6.140625 4.957031 -7.320312 4.875 -7.59375 C 4.789062 -7.875 4.734375 -8.09375 4.703125 -8.25 C 4.554688 -7.6875 4.140625 -6.285156 3.453125 -4.046875 Z M 5.984375 -4.046875 "/></g></g></g><g fill="#002d24" fill-opacity="1"><g transform="translate(283.954266, 369.98939)"><g/></g></g><g fill="#002d24" fill-opacity="1"><g transform="translate(288.17627, 369.98939)"><g><path d="M 5.359375 -8.15625 C 4.578125 -8.15625 3.972656 -7.863281 3.546875 -7.28125 C 3.117188 -6.695312 2.90625 -5.882812 2.90625 -4.84375 C 2.90625 -2.664062 3.722656 -1.578125 5.359375 -1.578125 C 6.035156 -1.578125 6.863281 -1.75 7.84375 -2.09375 L 7.84375 -0.359375 C 7.039062 -0.0234375 6.144531 0.140625 5.15625 0.140625 C 3.75 0.140625 2.671875 -0.285156 1.921875 -1.140625 C 1.171875 -2.003906 0.796875 -3.238281 0.796875 -4.84375 C 0.796875 -5.851562 0.976562 -6.738281 1.34375 -7.5 C 1.707031 -8.269531 2.234375 -8.851562 2.921875 -9.25 C 3.617188 -9.65625 4.429688 -9.859375 5.359375 -9.859375 C 6.296875 -9.859375 7.242188 -9.632812 8.203125 -9.1875 L 7.53125 -7.5 C 7.164062 -7.675781 6.800781 -7.828125 6.4375 -7.953125 C 6.070312 -8.085938 5.710938 -8.15625 5.359375 -8.15625 Z M 5.359375 -8.15625 "/></g></g></g><g fill="#002d24" fill-opacity="1"><g transform="translate(297.542354, 369.98939)"><g><path d="M 10.046875 -4.875 C 10.046875 -3.269531 9.644531 -2.03125 8.84375 -1.15625 C 8.050781 -0.289062 6.910156 0.140625 5.421875 0.140625 C 3.929688 0.140625 2.785156 -0.289062 1.984375 -1.15625 C 1.191406 -2.03125 0.796875 -3.273438 0.796875 -4.890625 C 0.796875 -6.503906 1.191406 -7.738281 1.984375 -8.59375 C 2.785156 -9.445312 3.9375 -9.875 5.4375 -9.875 C 6.925781 -9.875 8.066406 -9.441406 8.859375 -8.578125 C 9.648438 -7.722656 10.046875 -6.488281 10.046875 -4.875 Z M 2.953125 -4.875 C 2.953125 -3.789062 3.15625 -2.972656 3.5625 -2.421875 C 3.976562 -1.867188 4.597656 -1.59375 5.421875 -1.59375 C 7.066406 -1.59375 7.890625 -2.6875 7.890625 -4.875 C 7.890625 -7.0625 7.070312 -8.15625 5.4375 -8.15625 C 4.613281 -8.15625 3.992188 -7.878906 3.578125 -7.328125 C 3.160156 -6.773438 2.953125 -5.957031 2.953125 -4.875 Z M 2.953125 -4.875 "/></g></g></g><g fill="#002d24" fill-opacity="1"><g transform="translate(309.071203, 369.98939)"><g><path d="M 9.859375 0 L 7.234375 0 L 3 -7.359375 L 2.9375 -7.359375 C 3.019531 -6.054688 3.0625 -5.128906 3.0625 -4.578125 L 3.0625 0 L 1.21875 0 L 1.21875 -9.71875 L 3.828125 -9.71875 L 8.046875 -2.4375 L 8.09375 -2.4375 C 8.03125 -3.707031 8 -4.601562 8 -5.125 L 8 -9.71875 L 9.859375 -9.71875 Z M 9.859375 0 "/></g></g></g><g fill="#002d24" fill-opacity="1"><g transform="translate(320.832974, 369.98939)"><g/></g></g><g fill="#002d24" fill-opacity="1"><g transform="translate(325.054994, 369.98939)"><g><path d="M 1.21875 0 L 1.21875 -9.71875 L 3.28125 -9.71875 L 3.28125 0 Z M 1.21875 0 "/></g></g></g><g fill="#002d24" fill-opacity="1"><g transform="translate(330.248582, 369.98939)"><g><path d="M 10.046875 -4.875 C 10.046875 -3.269531 9.644531 -2.03125 8.84375 -1.15625 C 8.050781 -0.289062 6.910156 0.140625 5.421875 0.140625 C 3.929688 0.140625 2.785156 -0.289062 1.984375 -1.15625 C 1.191406 -2.03125 0.796875 -3.273438 0.796875 -4.890625 C 0.796875 -6.503906 1.191406 -7.738281 1.984375 -8.59375 C 2.785156 -9.445312 3.9375 -9.875 5.4375 -9.875 C 6.925781 -9.875 8.066406 -9.441406 8.859375 -8.578125 C 9.648438 -7.722656 10.046875 -6.488281 10.046875 -4.875 Z M 2.953125 -4.875 C 2.953125 -3.789062 3.15625 -2.972656 3.5625 -2.421875 C 3.976562 -1.867188 4.597656 -1.59375 5.421875 -1.59375 C 7.066406 -1.59375 7.890625 -2.6875 7.890625 -4.875 C 7.890625 -7.0625 7.070312 -8.15625 5.4375 -8.15625 C 4.613281 -8.15625 3.992188 -7.878906 3.578125 -7.328125 C 3.160156 -6.773438 2.953125 -5.957031 2.953125 -4.875 Z M 2.953125 -4.875 "/></g></g></g><g fill="#002d24" fill-opacity="1"><g transform="translate(341.777431, 369.98939)"><g><path d="M 4.96875 0 L 2.90625 0 L 2.90625 -8.015625 L 0.265625 -8.015625 L 0.265625 -9.71875 L 7.625 -9.71875 L 7.625 -8.015625 L 4.96875 -8.015625 Z M 4.96875 0 "/></g></g></g></svg>