<svg xmlns="http://www.w3.org/2000/svg" xmlns:xlink="http://www.w3.org/1999/xlink" width="500" zoomAndPan="magnify" viewBox="0 0 375 374.999991" height="500" preserveAspectRatio="xMidYMid meet" version="1.0"><path fill="#002d24" d="M 328.035156 334.625 C 328.035156 335.003906 327.980469 335.386719 327.863281 335.765625 C 327.75 336.148438 327.578125 336.527344 327.351562 336.90625 C 327.125 337.285156 326.839844 337.664062 326.496094 338.042969 C 326.15625 338.417969 325.757812 338.796875 325.304688 339.167969 C 324.851562 339.542969 324.339844 339.914062 323.777344 340.285156 C 323.210938 340.65625 322.589844 341.023438 321.914062 341.386719 C 321.238281 341.75 320.511719 342.113281 319.726562 342.472656 C 318.941406 342.832031 318.105469 343.1875 317.214844 343.539062 C 316.324219 343.890625 315.382812 344.242188 314.386719 344.585938 C 313.394531 344.929688 312.347656 345.269531 311.25 345.605469 C 310.15625 345.941406 309.007812 346.273438 307.8125 346.601562 C 306.617188 346.929688 305.371094 347.25 304.078125 347.566406 C 302.789062 347.882812 301.449219 348.195312 300.0625 348.503906 C 298.675781 348.808594 297.246094 349.109375 295.769531 349.402344 C 294.292969 349.699219 292.773438 349.988281 291.210938 350.269531 C 289.652344 350.550781 288.046875 350.828125 286.402344 351.097656 C 284.757812 351.367188 283.074219 351.628906 281.347656 351.886719 C 279.625 352.144531 277.863281 352.390625 276.066406 352.632812 C 274.269531 352.875 272.433594 353.109375 270.566406 353.335938 C 268.695312 353.5625 266.796875 353.785156 264.863281 353.996094 C 262.925781 354.207031 260.960938 354.410156 258.96875 354.605469 C 256.972656 354.804688 254.949219 354.992188 252.894531 355.171875 C 250.84375 355.351562 248.765625 355.523438 246.664062 355.683594 C 244.5625 355.847656 242.433594 356.003906 240.285156 356.148438 C 238.136719 356.292969 235.96875 356.433594 233.777344 356.558594 C 231.585938 356.6875 229.378906 356.808594 227.152344 356.917969 C 224.925781 357.03125 222.683594 357.132812 220.425781 357.222656 C 218.171875 357.316406 215.902344 357.398438 213.621094 357.472656 C 211.339844 357.546875 209.046875 357.613281 206.746094 357.667969 C 204.445312 357.726562 202.136719 357.773438 199.820312 357.808594 C 197.507812 357.847656 195.1875 357.875 192.863281 357.894531 C 190.539062 357.914062 188.214844 357.921875 185.886719 357.921875 C 183.5625 357.921875 181.238281 357.914062 178.914062 357.894531 C 176.589844 357.875 174.269531 357.847656 171.957031 357.808594 C 169.640625 357.773438 167.332031 357.726562 165.03125 357.667969 C 162.730469 357.613281 160.4375 357.546875 158.15625 357.472656 C 155.875 357.398438 153.605469 357.316406 151.351562 357.222656 C 149.09375 357.132812 146.851562 357.03125 144.625 356.917969 C 142.398438 356.808594 140.191406 356.6875 138 356.558594 C 135.808594 356.433594 133.640625 356.292969 131.492188 356.148438 C 129.34375 356.003906 127.214844 355.847656 125.113281 355.683594 C 123.011719 355.523438 120.933594 355.351562 118.882812 355.171875 C 116.828125 354.992188 114.804688 354.804688 112.808594 354.605469 C 110.816406 354.410156 108.851562 354.207031 106.914062 353.996094 C 104.980469 353.785156 103.082031 353.5625 101.210938 353.335938 C 99.34375 353.109375 97.507812 352.875 95.710938 352.632812 C 93.914062 352.390625 92.152344 352.144531 90.429688 351.886719 C 88.703125 351.628906 87.019531 351.367188 85.375 351.097656 C 83.730469 350.828125 82.125 350.550781 80.566406 350.269531 C 79.003906 349.988281 77.484375 349.699219 76.007812 349.402344 C 74.53125 349.109375 73.101562 348.808594 71.714844 348.503906 C 70.328125 348.195312 68.988281 347.882812 67.699219 347.566406 C 66.40625 347.25 65.160156 346.929688 63.964844 346.601562 C 62.769531 346.273438 61.621094 345.941406 60.527344 345.605469 C 59.429688 345.269531 58.382812 344.929688 57.390625 344.585938 C 56.394531 344.242188 55.453125 343.890625 54.5625 343.539062 C 53.671875 343.1875 52.835938 342.832031 52.050781 342.472656 C 51.265625 342.113281 50.539062 341.75 49.863281 341.386719 C 49.1875 341.023438 48.566406 340.65625 48 340.285156 C 47.4375 339.914062 46.925781 339.542969 46.472656 339.167969 C 46.019531 338.796875 45.621094 338.417969 45.28125 338.042969 C 44.9375 337.664062 44.652344 337.285156 44.425781 336.90625 C 44.199219 336.527344 44.027344 336.148438 43.914062 335.765625 C 43.796875 335.386719 43.742188 335.003906 43.742188 334.625 C 43.742188 334.242188 43.796875 333.863281 43.914062 333.480469 C 44.027344 333.101562 44.199219 332.71875 44.425781 332.339844 C 44.652344 331.960938 44.9375 331.582031 45.28125 331.207031 C 45.621094 330.828125 46.019531 330.453125 46.472656 330.078125 C 46.925781 329.703125 47.4375 329.332031 48 328.960938 C 48.566406 328.59375 49.1875 328.226562 49.863281 327.859375 C 50.539062 327.496094 51.265625 327.132812 52.050781 326.773438 C 52.835938 326.414062 53.671875 326.058594 54.5625 325.707031 C 55.453125 325.355469 56.394531 325.007812 57.390625 324.664062 C 58.382812 324.316406 59.429688 323.976562 60.527344 323.640625 C 61.621094 323.304688 62.769531 322.972656 63.964844 322.644531 C 65.160156 322.320312 66.40625 321.996094 67.699219 321.679688 C 68.988281 321.363281 70.328125 321.050781 71.714844 320.746094 C 73.101562 320.4375 74.53125 320.136719 76.007812 319.84375 C 77.484375 319.550781 79.003906 319.261719 80.566406 318.976562 C 82.125 318.695312 83.730469 318.417969 85.375 318.148438 C 87.019531 317.878906 88.703125 317.617188 90.429688 317.359375 C 92.152344 317.105469 93.914062 316.855469 95.710938 316.613281 C 97.507812 316.371094 99.34375 316.136719 101.210938 315.910156 C 103.082031 315.683594 104.980469 315.464844 106.914062 315.253906 C 108.851562 315.039062 110.816406 314.835938 112.808594 314.640625 C 114.804688 314.445312 116.828125 314.257812 118.882812 314.078125 C 120.933594 313.898438 123.011719 313.726562 125.113281 313.5625 C 127.214844 313.398438 129.34375 313.246094 131.492188 313.097656 C 133.640625 312.953125 135.808594 312.816406 138 312.6875 C 140.191406 312.558594 142.398438 312.441406 144.625 312.328125 C 146.851562 312.21875 149.09375 312.117188 151.351562 312.023438 C 153.605469 311.929688 155.875 311.847656 158.15625 311.773438 C 160.4375 311.699219 162.730469 311.632812 165.03125 311.578125 C 167.332031 311.523438 169.640625 311.476562 171.957031 311.4375 C 174.269531 311.402344 176.589844 311.371094 178.914062 311.355469 C 181.238281 311.335938 183.5625 311.324219 185.886719 311.324219 C 188.214844 311.324219 190.539062 311.335938 192.863281 311.355469 C 195.1875 311.371094 197.507812 311.402344 199.820312 311.4375 C 202.136719 311.476562 204.445312 311.523438 206.746094 311.578125 C 209.046875 311.632812 211.339844 311.699219 213.621094 311.773438 C 215.902344 311.847656 218.171875 311.929688 220.425781 312.023438 C 222.683594 312.117188 224.925781 312.21875 227.152344 312.328125 C 229.378906 312.441406 231.585938 312.558594 233.777344 312.6875 C 235.96875 312.816406 238.136719 312.953125 240.285156 313.097656 C 242.433594 313.246094 244.5625 313.398438 246.664062 313.5625 C 248.765625 313.726562 250.84375 313.898438 252.894531 314.078125 C 254.949219 314.257812 256.972656 314.445312 258.96875 314.640625 C 260.960938 314.835938 262.925781 315.039062 264.863281 315.253906 C 266.796875 315.464844 268.695312 315.683594 270.566406 315.910156 C 272.433594 316.136719 274.269531 316.371094 276.066406 316.613281 C 277.863281 316.855469 279.625 317.105469 281.347656 317.359375 C 283.074219 317.617188 284.757812 317.878906 286.402344 318.148438 C 288.046875 318.417969 289.652344 318.695312 291.210938 318.976562 C 292.773438 319.261719 294.292969 319.550781 295.769531 319.84375 C 297.246094 320.136719 298.675781 320.4375 300.0625 320.746094 C 301.449219 321.050781 302.789062 321.363281 304.078125 321.679688 C 305.371094 321.996094 306.617188 322.320312 307.8125 322.644531 C 309.007812 322.972656 310.15625 323.304688 311.25 323.640625 C 312.347656 323.976562 313.394531 324.316406 314.386719 324.664062 C 315.382812 325.007812 316.324219 325.355469 317.214844 325.707031 C 318.105469 326.058594 318.941406 326.414062 319.726562 326.773438 C 320.511719 327.132812 321.238281 327.496094 321.914062 327.859375 C 322.589844 328.226562 323.210938 328.59375 323.777344 328.960938 C 324.339844 329.332031 324.851562 329.703125 325.304688 330.078125 C 325.757812 330.453125 326.15625 330.828125 326.496094 331.207031 C 326.839844 331.582031 327.125 331.960938 327.351562 332.339844 C 327.578125 332.71875 327.75 333.101562 327.863281 333.480469 C 327.980469 333.863281 328.035156 334.242188 328.035156 334.625 Z M 328.035156 334.625 " fill-opacity="1" fill-rule="nonzero"/><path fill="#002d24" d="M 203 317.675781 L 161.253906 317.777344 C 143.796875 206.605469 171.214844 106.320312 243.617188 17.078125 C 189.238281 120.804688 175.683594 220.984375 203 317.675781 Z M 203 317.675781 " fill-opacity="1" fill-rule="evenodd"/><path fill="#002d24" d="M 275.628906 179.199219 C 246.519531 185.496094 221.304688 200.515625 199.972656 224.261719 C 210.128906 162.957031 253.890625 137.921875 331.257812 149.160156 C 322.921875 226.167969 282.3125 260.660156 209.425781 252.632812 C 220.058594 221.226562 242.125 196.746094 275.628906 179.199219 Z M 275.628906 179.199219 " fill-opacity="1" fill-rule="evenodd"/><path fill="#002d24" d="M 122.644531 82.402344 C 140.804688 97.203125 150.261719 118.527344 151.015625 146.378906 C 107.65625 141.824219 85.035156 110.304688 83.148438 51.804688 C 141.84375 55.335938 169.65625 80.558594 166.59375 127.464844 C 155.285156 107.640625 140.632812 92.621094 122.644531 82.402344 Z M 122.644531 82.402344 " fill-opacity="1" fill-rule="evenodd"/><path fill="#002d24" d="M 34.140625 0.394531 L 340.859375 0.394531 C 342.910156 0.394531 344.785156 1.234375 346.144531 2.59375 C 346.148438 2.59375 346.148438 2.597656 346.152344 2.601562 C 346.152344 2.601562 346.15625 2.605469 346.160156 2.605469 C 346.160156 2.609375 346.164062 2.609375 346.164062 2.613281 C 347.519531 3.972656 348.359375 5.84375 348.359375 7.894531 L 348.359375 367.105469 C 348.359375 369.160156 347.515625 371.03125 346.160156 372.394531 C 346.15625 372.394531 346.152344 372.398438 346.152344 372.398438 C 346.148438 372.402344 346.148438 372.40625 346.144531 372.40625 C 346.144531 372.40625 346.140625 372.410156 346.140625 372.414062 C 344.777344 373.765625 342.90625 374.605469 340.859375 374.605469 L 34.140625 374.605469 C 32.089844 374.605469 30.214844 373.765625 28.851562 372.40625 C 28.851562 372.40625 28.847656 372.402344 28.847656 372.398438 C 28.84375 372.398438 28.84375 372.394531 28.839844 372.394531 C 28.839844 372.390625 28.835938 372.390625 28.835938 372.386719 C 27.480469 371.027344 26.640625 369.15625 26.640625 367.105469 L 26.640625 7.894531 C 26.640625 5.839844 27.484375 3.96875 28.839844 2.605469 C 28.84375 2.605469 28.84375 2.601562 28.847656 2.601562 C 28.847656 2.597656 28.851562 2.59375 28.851562 2.59375 C 28.855469 2.59375 28.859375 2.589844 28.859375 2.585938 C 30.222656 1.234375 32.09375 0.394531 34.140625 0.394531 Z M 34.140625 3.394531 L 340.859375 3.394531 C 343.335938 3.394531 345.359375 5.417969 345.359375 7.894531 L 345.359375 367.105469 C 345.359375 369.582031 343.335938 371.605469 340.859375 371.605469 L 34.140625 371.605469 C 31.664062 371.605469 29.640625 369.582031 29.640625 367.105469 L 29.640625 7.894531 C 29.640625 5.417969 31.664062 3.394531 34.140625 3.394531 Z M 34.140625 3.394531 " fill-opacity="1" fill-rule="evenodd"/></svg>