<svg xmlns="http://www.w3.org/2000/svg" xmlns:xlink="http://www.w3.org/1999/xlink" width="500" zoomAndPan="magnify" viewBox="0 0 375 374.999991" height="500" preserveAspectRatio="xMidYMid meet" version="1.0"><defs><g/><clipPath id="ebd0e829a9"><path d="M 86 1.5 L 289 1.5 L 289 236.640625 L 86 236.640625 Z M 86 1.5 " clip-rule="nonzero"/></clipPath></defs><rect x="-37.5" width="450" fill="#ffffff" y="-37.499999" height="449.999989" fill-opacity="1"/><rect x="-37.5" width="450" fill="#ffffff" y="-37.499999" height="449.999989" fill-opacity="1"/><path fill="#002d24" d="M 275.421875 211.320312 C 275.421875 211.5625 275.386719 211.800781 275.316406 212.039062 C 275.242188 212.277344 275.136719 212.515625 274.992188 212.753906 C 274.851562 212.992188 274.671875 213.230469 274.457031 213.464844 C 274.242188 213.703125 273.996094 213.9375 273.710938 214.171875 C 273.425781 214.40625 273.105469 214.640625 272.75 214.871094 C 272.398438 215.101562 272.007812 215.332031 271.585938 215.5625 C 271.160156 215.792969 270.703125 216.019531 270.210938 216.242188 C 269.722656 216.46875 269.195312 216.691406 268.636719 216.914062 C 268.078125 217.132812 267.488281 217.351562 266.863281 217.566406 C 266.242188 217.785156 265.585938 217.996094 264.898438 218.207031 C 264.210938 218.417969 263.492188 218.628906 262.742188 218.832031 C 261.992188 219.039062 261.210938 219.238281 260.402344 219.4375 C 259.589844 219.636719 258.75 219.832031 257.882812 220.023438 C 257.011719 220.214844 256.117188 220.40625 255.191406 220.589844 C 254.265625 220.773438 253.3125 220.957031 252.332031 221.132812 C 251.351562 221.308594 250.347656 221.484375 249.316406 221.652344 C 248.285156 221.820312 247.230469 221.984375 246.148438 222.144531 C 245.066406 222.308594 243.964844 222.460938 242.835938 222.613281 C 241.707031 222.765625 240.558594 222.914062 239.386719 223.054688 C 238.214844 223.199219 237.023438 223.335938 235.808594 223.46875 C 234.597656 223.601562 233.363281 223.730469 232.113281 223.851562 C 230.863281 223.976562 229.59375 224.09375 228.308594 224.207031 C 227.019531 224.316406 225.71875 224.425781 224.398438 224.527344 C 223.082031 224.628906 221.746094 224.726562 220.398438 224.820312 C 219.050781 224.910156 217.691406 224.996094 216.320312 225.078125 C 214.945312 225.15625 213.558594 225.230469 212.164062 225.300781 C 210.769531 225.371094 209.363281 225.433594 207.949219 225.492188 C 206.53125 225.550781 205.109375 225.601562 203.679688 225.648438 C 202.25 225.695312 200.8125 225.738281 199.371094 225.773438 C 197.925781 225.808594 196.480469 225.835938 195.027344 225.859375 C 193.574219 225.882812 192.121094 225.902344 190.664062 225.914062 C 189.207031 225.925781 187.75 225.929688 186.289062 225.929688 C 184.832031 225.929688 183.375 225.925781 181.917969 225.914062 C 180.460938 225.902344 179.007812 225.882812 177.554688 225.859375 C 176.101562 225.835938 174.65625 225.808594 173.210938 225.773438 C 171.769531 225.738281 170.332031 225.695312 168.902344 225.648438 C 167.472656 225.601562 166.046875 225.550781 164.632812 225.492188 C 163.21875 225.433594 161.8125 225.371094 160.417969 225.300781 C 159.019531 225.230469 157.636719 225.15625 156.261719 225.078125 C 154.890625 224.996094 153.527344 224.910156 152.179688 224.820312 C 150.832031 224.726562 149.5 224.628906 148.183594 224.527344 C 146.863281 224.425781 145.5625 224.316406 144.273438 224.207031 C 142.988281 224.09375 141.71875 223.976562 140.46875 223.851562 C 139.21875 223.730469 137.984375 223.601562 136.773438 223.46875 C 135.558594 223.335938 134.367188 223.199219 133.195312 223.054688 C 132.023438 222.914062 130.875 222.765625 129.746094 222.613281 C 128.617188 222.460938 127.515625 222.308594 126.433594 222.144531 C 125.351562 221.984375 124.296875 221.820312 123.265625 221.652344 C 122.234375 221.484375 121.226562 221.308594 120.25 221.132812 C 119.269531 220.957031 118.316406 220.773438 117.390625 220.589844 C 116.464844 220.40625 115.570312 220.214844 114.699219 220.023438 C 113.832031 219.832031 112.992188 219.636719 112.179688 219.4375 C 111.371094 219.238281 110.589844 219.039062 109.839844 218.832031 C 109.089844 218.628906 108.371094 218.417969 107.683594 218.207031 C 106.996094 217.996094 106.339844 217.785156 105.714844 217.566406 C 105.09375 217.351562 104.503906 217.132812 103.945312 216.914062 C 103.386719 216.691406 102.859375 216.46875 102.371094 216.242188 C 101.878906 216.019531 101.421875 215.792969 100.996094 215.5625 C 100.574219 215.332031 100.183594 215.101562 99.832031 214.871094 C 99.476562 214.640625 99.15625 214.40625 98.871094 214.171875 C 98.585938 213.9375 98.335938 213.703125 98.125 213.464844 C 97.910156 213.230469 97.730469 212.992188 97.589844 212.753906 C 97.445312 212.515625 97.339844 212.277344 97.265625 212.039062 C 97.195312 211.800781 97.160156 211.5625 97.160156 211.320312 C 97.160156 211.082031 97.195312 210.84375 97.265625 210.605469 C 97.339844 210.367188 97.445312 210.128906 97.589844 209.890625 C 97.730469 209.652344 97.910156 209.414062 98.125 209.179688 C 98.335938 208.941406 98.585938 208.707031 98.871094 208.472656 C 99.15625 208.238281 99.476562 208.003906 99.832031 207.773438 C 100.183594 207.539062 100.574219 207.308594 100.996094 207.082031 C 101.421875 206.851562 101.878906 206.625 102.371094 206.398438 C 102.859375 206.175781 103.386719 205.953125 103.945312 205.730469 C 104.503906 205.511719 105.09375 205.292969 105.714844 205.074219 C 106.339844 204.859375 106.996094 204.644531 107.683594 204.433594 C 108.371094 204.222656 109.089844 204.015625 109.839844 203.8125 C 110.589844 203.605469 111.371094 203.402344 112.179688 203.207031 C 112.992188 203.007812 113.832031 202.8125 114.699219 202.621094 C 115.570312 202.425781 116.464844 202.238281 117.390625 202.054688 C 118.316406 201.867188 119.269531 201.6875 120.25 201.511719 C 121.226562 201.332031 122.234375 201.160156 123.265625 200.992188 C 124.296875 200.824219 125.351562 200.65625 126.433594 200.496094 C 127.515625 200.335938 128.617188 200.179688 129.746094 200.027344 C 130.875 199.878906 132.023438 199.730469 133.195312 199.585938 C 134.367188 199.445312 135.558594 199.308594 136.773438 199.175781 C 137.984375 199.042969 139.214844 198.914062 140.46875 198.792969 C 141.71875 198.667969 142.988281 198.550781 144.273438 198.4375 C 145.5625 198.324219 146.863281 198.21875 148.183594 198.117188 C 149.5 198.011719 150.832031 197.917969 152.179688 197.824219 C 153.527344 197.734375 154.890625 197.648438 156.261719 197.566406 C 157.636719 197.484375 159.019531 197.410156 160.417969 197.34375 C 161.8125 197.273438 163.21875 197.207031 164.632812 197.152344 C 166.046875 197.09375 167.472656 197.039062 168.902344 196.992188 C 170.332031 196.945312 171.769531 196.90625 173.210938 196.871094 C 174.65625 196.835938 176.101562 196.808594 177.554688 196.785156 C 179.007812 196.761719 180.460938 196.742188 181.917969 196.730469 C 183.375 196.71875 184.832031 196.710938 186.289062 196.710938 C 187.75 196.710938 189.207031 196.71875 190.664062 196.730469 C 192.121094 196.742188 193.574219 196.761719 195.027344 196.785156 C 196.480469 196.808594 197.925781 196.835938 199.371094 196.871094 C 200.8125 196.90625 202.25 196.945312 203.679688 196.992188 C 205.109375 197.039062 206.53125 197.09375 207.949219 197.152344 C 209.363281 197.207031 210.769531 197.273438 212.164062 197.34375 C 213.558594 197.410156 214.945312 197.484375 216.320312 197.566406 C 217.691406 197.648438 219.050781 197.734375 220.398438 197.824219 C 221.746094 197.917969 223.082031 198.011719 224.398438 198.117188 C 225.71875 198.21875 227.019531 198.324219 228.308594 198.4375 C 229.59375 198.550781 230.863281 198.667969 232.113281 198.792969 C 233.363281 198.914062 234.597656 199.042969 235.808594 199.175781 C 237.023438 199.308594 238.214844 199.445312 239.386719 199.585938 C 240.558594 199.730469 241.707031 199.878906 242.835938 200.027344 C 243.964844 200.179688 245.066406 200.335938 246.148438 200.496094 C 247.230469 200.65625 248.285156 200.824219 249.316406 200.992188 C 250.347656 201.160156 251.351562 201.332031 252.332031 201.511719 C 253.3125 201.6875 254.265625 201.867188 255.191406 202.054688 C 256.117188 202.238281 257.011719 202.425781 257.882812 202.621094 C 258.75 202.8125 259.589844 203.007812 260.402344 203.207031 C 261.210938 203.402344 261.992188 203.605469 262.742188 203.8125 C 263.492188 204.015625 264.210938 204.222656 264.898438 204.433594 C 265.585938 204.644531 266.242188 204.859375 266.863281 205.074219 C 267.488281 205.292969 268.078125 205.511719 268.636719 205.730469 C 269.195312 205.953125 269.722656 206.175781 270.210938 206.398438 C 270.703125 206.625 271.160156 206.851562 271.585938 207.082031 C 272.007812 207.308594 272.398438 207.539062 272.75 207.773438 C 273.105469 208.003906 273.425781 208.238281 273.710938 208.472656 C 273.996094 208.707031 274.242188 208.941406 274.457031 209.179688 C 274.671875 209.414062 274.851562 209.652344 274.992188 209.890625 C 275.136719 210.128906 275.242188 210.367188 275.316406 210.605469 C 275.386719 210.84375 275.421875 211.082031 275.421875 211.320312 Z M 275.421875 211.320312 " fill-opacity="1" fill-rule="nonzero"/><path fill="#002d24" d="M 197.019531 200.695312 L 170.84375 200.757812 C 159.894531 131.050781 177.089844 68.167969 222.488281 12.210938 C 188.390625 77.25 179.890625 140.066406 197.019531 200.695312 Z M 197.019531 200.695312 " fill-opacity="1" fill-rule="evenodd"/><path fill="#002d24" d="M 242.558594 113.863281 C 224.308594 117.8125 208.496094 127.230469 195.121094 142.121094 C 201.488281 103.679688 228.929688 87.980469 277.441406 95.027344 C 272.21875 143.316406 246.753906 164.941406 201.050781 159.910156 C 207.71875 140.214844 221.554688 124.867188 242.558594 113.863281 Z M 242.558594 113.863281 " fill-opacity="1" fill-rule="evenodd"/><path fill="#002d24" d="M 146.632812 53.171875 C 158.023438 62.449219 163.953125 75.820312 164.421875 93.285156 C 137.234375 90.429688 123.050781 70.664062 121.867188 33.984375 C 158.671875 36.199219 176.113281 52.011719 174.191406 81.425781 C 167.101562 68.996094 157.914062 59.578125 146.632812 53.171875 Z M 146.632812 53.171875 " fill-opacity="1" fill-rule="evenodd"/><g clip-path="url(#ebd0e829a9)"><path fill="#002d24" d="M 91.136719 1.746094 L 283.464844 1.746094 C 284.75 1.746094 285.921875 2.273438 286.777344 3.125 C 286.777344 3.128906 286.78125 3.128906 286.78125 3.128906 C 286.78125 3.132812 286.785156 3.132812 286.785156 3.132812 C 286.785156 3.136719 286.789062 3.136719 286.789062 3.136719 C 287.640625 3.992188 288.164062 5.164062 288.164062 6.449219 L 288.164062 231.691406 C 288.164062 232.976562 287.636719 234.152344 286.785156 235.003906 C 286.785156 235.007812 286.78125 235.007812 286.78125 235.007812 C 286.78125 235.011719 286.777344 235.011719 286.777344 235.011719 C 286.777344 235.015625 286.773438 235.015625 286.773438 235.015625 C 285.921875 235.867188 284.746094 236.390625 283.464844 236.390625 L 91.136719 236.390625 C 89.851562 236.390625 88.679688 235.863281 87.824219 235.011719 C 87.824219 235.011719 87.820312 235.011719 87.820312 235.007812 C 87.820312 235.007812 87.816406 235.007812 87.816406 235.003906 C 87.816406 235.003906 87.8125 235.003906 87.8125 235 C 86.960938 234.148438 86.4375 232.972656 86.4375 231.691406 L 86.4375 6.449219 C 86.4375 5.164062 86.964844 3.988281 87.816406 3.132812 C 87.816406 3.132812 87.820312 3.132812 87.820312 3.128906 C 87.820312 3.128906 87.824219 3.128906 87.824219 3.125 C 87.824219 3.125 87.828125 3.125 87.828125 3.121094 C 88.679688 2.273438 89.855469 1.746094 91.136719 1.746094 Z M 91.136719 3.628906 L 283.464844 3.628906 C 285.015625 3.628906 286.285156 4.898438 286.285156 6.449219 L 286.285156 231.691406 C 286.285156 233.242188 285.015625 234.511719 283.464844 234.511719 L 91.136719 234.511719 C 89.585938 234.511719 88.316406 233.242188 88.316406 231.691406 L 88.316406 6.449219 C 88.316406 4.898438 89.585938 3.628906 91.136719 3.628906 Z M 91.136719 3.628906 " fill-opacity="1" fill-rule="evenodd"/></g><g fill="#002d24" fill-opacity="1"><g transform="translate(10.003776, 372.91791)"><g><path d="M 81.109375 0 L 73.734375 -20.953125 L 31.0625 -20.953125 L 23.6875 0 L 2.109375 0 L 39.5 -101.5625 L 65.296875 -101.5625 L 102.6875 0 Z M 37.25 -38.59375 L 67.546875 -38.59375 L 52.4375 -81.671875 Z M 37.25 -38.59375 "/></g></g></g><g fill="#002d24" fill-opacity="1"><g transform="translate(105.874976, 372.91791)"><g><path d="M 13.140625 0 L 13.140625 -101.5625 L 34.234375 -101.5625 L 34.234375 0 Z M 13.140625 0 "/></g></g></g><g fill="#002d24" fill-opacity="1"><g transform="translate(144.252065, 372.91791)"><g><path d="M 129.546875 0 L 108.53125 0 L 101.84375 -76.546875 L 76.125 0 L 62.484375 0 L 36.765625 -76.546875 L 30.015625 0 L 8.921875 0 L 17.4375 -101.5625 L 47.515625 -101.5625 L 69.171875 -37.8125 L 91.09375 -101.5625 L 121.171875 -101.5625 Z M 129.546875 0 "/></g></g></g><g fill="#002d24" fill-opacity="1"><g transform="translate(273.790364, 372.91791)"><g><path d="M 46.953125 1.40625 C 41.472656 1.40625 36.363281 0.765625 31.625 -0.515625 C 26.894531 -1.804688 22.664062 -3.707031 18.9375 -6.21875 C 15.21875 -8.726562 12.160156 -11.8125 9.765625 -15.46875 C 7.378906 -19.125 5.785156 -23.335938 4.984375 -28.109375 L 25.859375 -32.890625 C 27.359375 -27.078125 29.984375 -22.773438 33.734375 -19.984375 C 37.484375 -17.203125 42.007812 -15.8125 47.3125 -15.8125 C 50.300781 -15.8125 52.988281 -16.242188 55.375 -17.109375 C 57.769531 -17.984375 59.660156 -19.3125 61.046875 -21.09375 C 62.429688 -22.875 63.097656 -25.117188 63.046875 -27.828125 C 63.046875 -30.316406 62.390625 -32.414062 61.078125 -34.125 C 59.765625 -35.832031 58.003906 -37.296875 55.796875 -38.515625 C 53.597656 -39.734375 51.082031 -40.8125 48.25 -41.75 C 45.414062 -42.6875 42.453125 -43.625 39.359375 -44.5625 C 36.359375 -45.5 33.378906 -46.492188 30.421875 -47.546875 C 27.472656 -48.597656 24.6875 -49.847656 22.0625 -51.296875 C 19.445312 -52.753906 17.117188 -54.488281 15.078125 -56.5 C 13.035156 -58.519531 11.425781 -60.925781 10.25 -63.71875 C 9.082031 -66.507812 8.5 -69.800781 8.5 -73.59375 C 8.5 -78.28125 9.398438 -82.4375 11.203125 -86.0625 C 13.015625 -89.695312 15.535156 -92.765625 18.765625 -95.265625 C 22.003906 -97.773438 25.800781 -99.6875 30.15625 -101 C 34.507812 -102.3125 39.242188 -102.96875 44.359375 -102.96875 C 48.804688 -102.96875 53.1875 -102.488281 57.5 -101.53125 C 61.8125 -100.570312 65.804688 -99.035156 69.484375 -96.921875 C 73.160156 -94.816406 76.285156 -92.066406 78.859375 -88.671875 C 81.441406 -85.273438 83.25 -81.140625 84.28125 -76.265625 L 65.15625 -71.5625 C 63.5625 -76.425781 61.097656 -80.003906 57.765625 -82.296875 C 54.441406 -84.597656 50.394531 -85.75 45.625 -85.75 C 42.8125 -85.75 40.207031 -85.335938 37.8125 -84.515625 C 35.425781 -83.703125 33.503906 -82.460938 32.046875 -80.796875 C 30.597656 -79.128906 29.875 -76.984375 29.875 -74.359375 C 29.875 -72.253906 30.445312 -70.472656 31.59375 -69.015625 C 32.738281 -67.566406 34.304688 -66.328125 36.296875 -65.296875 C 38.296875 -64.265625 40.59375 -63.335938 43.1875 -62.515625 C 45.789062 -61.703125 48.519531 -60.875 51.375 -60.03125 C 54.46875 -59.09375 57.597656 -58.070312 60.765625 -56.96875 C 63.929688 -55.863281 66.941406 -54.550781 69.796875 -53.03125 C 72.648438 -51.507812 75.210938 -49.660156 77.484375 -47.484375 C 79.765625 -45.304688 81.5625 -42.703125 82.875 -39.671875 C 84.1875 -36.648438 84.84375 -33.078125 84.84375 -28.953125 C 84.84375 -24.128906 83.914062 -19.832031 82.0625 -16.0625 C 80.207031 -12.289062 77.582031 -9.101562 74.1875 -6.5 C 70.789062 -3.894531 66.785156 -1.925781 62.171875 -0.59375 C 57.554688 0.738281 52.484375 1.40625 46.953125 1.40625 Z M 46.953125 1.40625 "/></g></g></g></svg>