<svg width="18" height="18" viewBox="0 0 18 18" fill="none" xmlns="http://www.w3.org/2000/svg">
<path d="M9 13C9 15.2091 7.20914 17 5 17C2.79086 17 1 15.2091 1 13C1 10.7909 2.79086 9 5 9C7.20914 9 9 10.7909 9 13Z" stroke="#212121" stroke-width="2" stroke-linecap="round" stroke-linejoin="round"/>
<path d="M17 7.5C17 8.88071 15.8807 10 14.5 10C13.1193 10 12 8.88071 12 7.5C12 6.11929 13.1193 5 14.5 5C15.8807 5 17 6.11929 17 7.5Z" stroke="#212121" stroke-width="2" stroke-linecap="round" stroke-linejoin="round"/>
<path d="M9 3C9 4.10457 8.10457 5 7 5C5.89543 5 5 4.10457 5 3C5 1.89543 5.89543 1 7 1C8.10457 1 9 1.89543 9 3Z" stroke="#212121" stroke-width="2" stroke-linecap="round" stroke-linejoin="round"/>
</svg>
