<svg width="18" height="20" viewBox="0 0 18 20" fill="none" xmlns="http://www.w3.org/2000/svg">
<path d="M1.54854 11.2642C0.909055 11.8313 0.887476 12.8355 1.36791 13.5427L2.196 14.7615C2.60944 15.37 3.37264 15.6351 4.07382 15.4138C5.06395 15.1013 6.09528 15.7619 6.22653 16.7927C6.33451 17.6407 7.08291 18.4972 7.93697 18.4985L9.68952 18.501C10.5437 18.5022 11.2894 17.6875 11.3997 16.8398C11.5365 15.7888 12.6087 15.1238 13.6177 15.4454C14.2884 15.6592 15.0319 15.4401 15.4711 14.8895L16.5001 13.599C17.0629 12.8933 16.9609 11.8672 16.2702 11.2864C15.4777 10.62 15.599 9.29878 16.3934 8.6347C17.0397 8.09435 17.1929 7.16153 16.7533 6.44256L15.8961 5.04059C15.4668 4.33831 14.5963 4.04496 13.83 4.34429C12.8004 4.74647 11.5409 4.12216 11.4013 3.02474C11.2934 2.17666 10.5682 1.50225 9.71405 1.50102L7.96149 1.49849C7.10744 1.49726 6.37964 2.17445 6.26922 3.02213C6.12664 4.11674 4.9941 4.78562 3.96789 4.38131C3.14687 4.05783 2.21525 4.41899 1.82609 5.21161L1.17883 6.52992C0.846949 7.20588 0.999003 8.01986 1.55248 8.53012C2.29247 9.21234 2.30158 10.5965 1.54854 11.2642Z" stroke="#212121" stroke-width="2" stroke-linecap="round" stroke-linejoin="round"/>
<path d="M11.5478 10.0037C11.5458 11.412 10.4035 12.552 8.99652 12.55C7.58951 12.548 6.45055 11.4046 6.45258 9.99632C6.45461 8.588 7.59687 7.44797 9.00388 7.45C10.4109 7.45203 11.5499 8.59535 11.5478 10.0037Z" stroke="#212121" stroke-width="2" stroke-linecap="round" stroke-linejoin="round"/>
</svg>
