<svg width="18" height="18" viewBox="0 0 18 18" fill="none" xmlns="http://www.w3.org/2000/svg">
<path d="M10 17C10 17 9.95355 15.84 10 14.5M10 14.5C10 10 10 8.5 12 6.44878M10 14.5C10 13 10 9.5 6.5 8.23627M14.2442 9C16.4891 7.70405 17 5.27846 17 2.5C17 2.03056 16.9569 1.57119 16.8744 1.12564C16.4288 1.04313 15.9694 1 15.5 1C12.2785 1 9.53144 2.03106 8.46941 4.8825C7.14623 3.7111 5.40616 3 3.5 3C2.65332 3 1.83942 3.1403 1.08026 3.39891C1.02738 3.75828 1 4.12594 1 4.5C1 7.76555 2.08702 10.5436 5 11.5732" stroke="#212121" stroke-width="2" stroke-linecap="round" stroke-linejoin="round"/>
</svg>
